<svg width="239" height="61" viewBox="0 0 239 61" fill="none" xmlns="http://www.w3.org/2000/svg">
<g id="Group 197">
<path id="Vector" d="M208.603 60.9179H170.611C154.04 60.9179 140.614 47.4854 140.614 30.9213C140.614 14.3572 154.04 0.917969 170.611 0.917969H208.603C225.174 0.917969 238.6 14.3505 238.6 30.9146C238.6 47.4787 225.167 60.9113 208.603 60.9113" fill="#00D199"/>
<path id="Vector_2" d="M213.62 13.9033V29.1548L201.753 13.9033H191.686V48.8106H202.819V32.9061L215.206 48.8106H224.76V13.9033H213.62Z" fill="#008278"/>
<path id="Vector_3" d="M151.656 30.8738C151.656 20.8327 159.791 12.6973 169.832 12.6973C179.873 12.6973 188.009 20.8327 188.009 30.8738C188.009 40.9149 179.873 49.0504 169.832 49.0504C159.791 49.0504 151.656 40.9149 151.656 30.8738Z" fill="#008278"/>
<path id="Vector_4" d="M162.648 30.8741C162.648 26.9096 165.867 23.6914 169.831 23.6914C173.796 23.6914 177.014 26.9096 177.014 30.8741C177.014 34.8385 173.796 38.0568 169.831 38.0568C165.867 38.0568 162.648 34.8385 162.648 30.8741Z" fill="white"/>
<path id="Vector_5" d="M21.8737 28.8816L35.2929 13.6367H21.6471L11.9525 25.0637V13.6367H0.71875V48.544H11.9525V39.4091L14.0713 37.0437L21.8537 48.544H35.3728L21.8737 28.8816Z" fill="white"/>
<path id="Vector_6" d="M49.4579 38.6695V35.6312H65.1758V26.3163H49.4579V23.5112H66.8082V13.6367H38.3174V48.544H67.0481V38.6695H49.4579Z" fill="white"/>
<path id="Vector_7" d="M93.8545 13.6367L87.7046 24.4574L81.5947 13.6367H68.7085L81.9878 35.5046V48.544H93.2682V35.3713L106.554 13.6367H93.8545Z" fill="white"/>
<path id="Vector_8" d="M138.136 13.6367H107.579V23.4646H122.118L107.02 40.4551V48.544H138.136V38.7161H123.037L138.136 21.7189V13.6367Z" fill="white"/>
</g>
</svg>
