<svg width="23" height="27" viewBox="0 0 23 27" fill="none" xmlns="http://www.w3.org/2000/svg">
<g id="Group 244">
<path id="Vector" d="M12.1101 0.498027C15.3724 1.0277 17.5879 4.10106 17.0582 7.36337C16.5291 10.6257 13.4552 12.8412 10.1929 12.3115C6.9306 11.7824 4.71508 8.70849 5.24475 5.44618C5.77442 2.1844 8.84778 -0.0311224 12.1101 0.498027Z" fill="#008179"/>
<path id="Vector_2" d="M22.0703 25.417C22.0693 25.6975 21.9578 25.966 21.7594 26.1644C21.5611 26.3628 21.292 26.4748 21.012 26.4753H1.29267C1.01214 26.4742 0.743636 26.3628 0.54527 26.1644C0.346904 25.966 0.234898 25.697 0.234375 25.417C0.234375 22.5216 1.38479 19.7445 3.4323 17.697C5.47982 15.6494 8.25694 14.499 11.1523 14.499C14.0478 14.499 16.8249 15.6494 18.8724 17.697C20.9199 19.7445 22.0703 22.5216 22.0703 25.417Z" fill="#008179"/>
</g>
</svg>
