<svg width="237" height="61" viewBox="0 0 237 61" fill="none" xmlns="http://www.w3.org/2000/svg">
<g id="Group 211">
<path id="Vector" d="M207.069 60.3137H169.243C152.747 60.3137 139.375 46.9418 139.375 30.4464C139.375 13.9511 152.747 0.574219 169.243 0.574219H207.069C223.564 0.574219 236.936 13.9462 236.936 30.4415C236.936 46.9368 223.564 60.3088 207.069 60.3088" fill="white"/>
<path id="Vector_2" d="M212.067 13.5068V28.6897L200.249 13.5068H190.223V48.2591H201.31V32.4249L213.641 48.2591H223.159V13.5068H212.067Z" fill="#008278"/>
<g id="Group">
<path id="Vector_3" d="M150.371 30.4017C150.371 20.4097 158.473 12.3076 168.465 12.3076C178.457 12.3076 186.564 20.4097 186.564 30.4017C186.564 40.3936 178.462 48.4957 168.465 48.4957C158.468 48.4957 150.371 40.3936 150.371 30.4017Z" fill="#008278"/>
<path id="Vector_4" d="M161.314 30.4018C161.314 26.4494 164.517 23.2471 168.469 23.2471C172.422 23.2471 175.624 26.4494 175.624 30.4018C175.624 34.3542 172.422 37.5565 168.469 37.5565C164.517 37.5565 161.314 34.3542 161.314 30.4018Z" fill="#00D199"/>
</g>
<path id="Vector_5" d="M20.9274 13.2402L11.271 24.6187V13.2402H0.0898438V47.9925H11.271V38.8986L13.3878 36.5449L21.1346 47.9925H34.5954L21.1494 28.4132L34.5115 13.2402H20.9274Z" fill="#008278"/>
<path id="Vector_6" d="M48.6127 38.1584V35.1337H64.2643V25.8622H48.6127V23.0693H65.8926V13.2402H37.5254V47.9925H66.1295V38.1584H48.6127Z" fill="#008278"/>
<path id="Vector_7" d="M92.8198 13.2402L86.6914 24.0118L80.6074 13.2402H67.7832L81.0071 35.0153V47.9925H92.2326V34.8771L105.466 13.2402H92.8198Z" fill="#008278"/>
<path id="Vector_8" d="M136.908 13.2402H106.488V23.0249H120.965L105.93 39.9397V47.9925H136.908V38.2078H121.873L136.908 21.2881V13.2402Z" fill="#008278"/>
</g>
</svg>
