<svg width="106" height="27" viewBox="0 0 106 27" fill="none" xmlns="http://www.w3.org/2000/svg">
<path d="M92.3276 26.7454H75.4781C68.1303 26.7454 62.1738 20.789 62.1738 13.4412C62.1738 6.09342 68.1303 0.134766 75.4781 0.134766H92.3276C99.6754 0.134766 105.632 6.09123 105.632 13.439C105.632 20.7868 99.6754 26.7432 92.3276 26.7432" fill="#00D198"/>
<path d="M94.5546 5.89551V12.6586L89.2905 5.89551H84.8242V21.3757H89.763V14.3225L95.2557 21.3757H99.4956V5.89551H94.5546Z" fill="#008278"/>
<path d="M67.0742 13.4203C67.0742 8.96939 70.6833 5.36035 75.1341 5.36035C79.585 5.36035 83.1962 8.96939 83.1962 13.4203C83.1962 17.8711 79.5872 21.4802 75.1341 21.4802C70.6811 21.4802 67.0742 17.8711 67.0742 13.4203Z" fill="#008278"/>
<path d="M71.9492 13.4204C71.9492 11.6599 73.3757 10.2334 75.1363 10.2334C76.8968 10.2334 78.3233 11.6599 78.3233 13.4204C78.3233 15.181 76.8968 16.6075 75.1363 16.6075C73.3757 16.6075 71.9492 15.181 71.9492 13.4204Z" fill="white"/>
<path d="M9.41283 5.77637L5.11143 10.8449V5.77637H0.130859V21.2566H5.11143V17.2057L6.05435 16.1573L9.50514 21.2566H15.5012L9.51173 12.5351L15.4638 5.77637H9.41283Z" fill="white"/>
<path d="M21.7454 16.876V15.5287H28.7174V11.3987H21.7454V10.1547H29.4427V5.77637H16.8066V21.2566H29.5482V16.876H21.7454Z" fill="white"/>
<path d="M41.4376 5.77637L38.7077 10.5745L35.9976 5.77637H30.2852L36.1757 15.4759V21.2566H41.176V15.4144L47.0709 5.77637H41.4376Z" fill="white"/>
<path d="M61.0761 5.77637H47.5257V10.1349H53.9745L47.2773 17.6695V21.2566H61.0761V16.898H54.3789L61.0761 9.36123V5.77637Z" fill="white"/>
</svg>
