<svg width="24" height="24" viewBox="0 0 24 24" fill="none" xmlns="http://www.w3.org/2000/svg">
<path id="Vector" d="M22.6908 21.4598L18.3719 17.1409C19.9823 15.3353 20.9827 12.944 20.9827 10.3332C20.9827 4.69666 16.3954 0.109375 10.7589 0.109375C5.12244 0.109375 0.535156 4.69666 0.535156 10.3332C0.535156 15.9697 5.12244 20.557 10.7589 20.557C12.7598 20.557 14.6142 19.9713 16.1758 18.9953L20.6655 23.485C20.9339 23.7534 21.2999 23.8998 21.6659 23.8998C22.032 23.8998 22.398 23.7534 22.6664 23.485C23.252 22.9238 23.252 22.021 22.6908 21.4598ZM3.39001 10.3332C3.39001 6.28269 6.68407 2.96423 10.7589 2.96423C14.8338 2.96423 18.1035 6.28269 18.1035 10.3332C18.1035 14.3836 14.8094 17.7021 10.7589 17.7021C6.70847 17.7021 3.39001 14.408 3.39001 10.3332Z" fill="white"/>
</svg>
