<svg width="23" height="25" viewBox="0 0 23 25" fill="none" xmlns="http://www.w3.org/2000/svg">
<path id="Vector" d="M22.4056 22.0262L18.0867 17.7073C19.6972 15.9017 20.6976 13.5104 20.6976 10.8996C20.6976 5.26307 16.1103 0.675781 10.4738 0.675781C4.83729 0.675781 0.25 5.26307 0.25 10.8996C0.25 16.5361 4.83729 21.1234 10.4738 21.1234C12.4746 21.1234 14.3291 20.5378 15.8907 19.5617L20.3804 24.0514C20.6488 24.3198 21.0148 24.4662 21.3808 24.4662C21.7468 24.4662 22.1128 24.3198 22.3812 24.0514C22.9668 23.4902 22.9668 22.5874 22.4056 22.0262ZM3.10485 10.8996C3.10485 6.8491 6.39891 3.53063 10.4738 3.53063C14.5487 3.53063 17.8183 6.8491 17.8183 10.8996C17.8183 14.95 14.5243 18.2685 10.4738 18.2685C6.42331 18.2685 3.10485 14.9744 3.10485 10.8996Z" fill="#008179"/>
</svg>
